<?xml version="1.0" standalone="no"?>
<!DOCTYPE svg PUBLIC "-//W3C//DTD SVG 20010904//EN"
 "http://www.w3.org/TR/2001/REC-SVG-20010904/DTD/svg10.dtd">
<svg version="1.0" xmlns="http://www.w3.org/2000/svg"
 width="700.000000pt" height="700.000000pt" viewBox="0 0 700.000000 700.000000"
 preserveAspectRatio="xMidYMid meet">
<metadata>
Created by potrace 1.11, written by Peter Selinger 2001-2013
</metadata>
<g transform="translate(0.000000,700.000000) scale(0.100000,-0.100000)"
fill="#000000" stroke="none">
<path d="M3269 6996 c-2 -2 -56 -7 -119 -10 -63 -4 -124 -9 -135 -11 -11 -2
-49 -7 -85 -10 -55 -5 -209 -27 -275 -40 -116 -22 -177 -35 -184 -39 -4 -3
-23 -8 -42 -11 -19 -3 -52 -11 -74 -17 -22 -6 -44 -12 -50 -14 -5 -1 -71 -22
-145 -47 -529 -175 -970 -470 -1321 -885 -285 -335 -503 -721 -647 -1147 -74
-216 -135 -475 -157 -660 -3 -27 -8 -59 -10 -70 -27 -138 -28 -927 0 -1085 2
-14 7 -47 10 -75 10 -75 12 -85 24 -150 18 -94 18 -98 30 -140 5 -22 13 -55
16 -74 3 -19 8 -38 11 -43 3 -5 7 -19 10 -33 7 -40 93 -293 125 -369 60 -143
75 -173 136 -294 232 -450 528 -801 933 -1103 68 -51 138 -98 255 -171 198
-124 593 -298 800 -353 6 -1 13 -3 17 -4 4 -1 22 -7 40 -12 34 -11 138 -37
173 -45 11 -2 31 -6 45 -9 36 -9 58 -13 125 -24 33 -6 74 -13 90 -16 17 -2 57
-7 90 -11 33 -3 71 -8 85 -11 46 -9 644 -11 745 -3 153 13 215 20 275 30 30 5
71 12 90 15 61 10 144 26 185 37 22 5 51 12 65 15 141 25 511 153 675 233 159
78 385 226 445 290 3 3 50 41 105 85 258 204 462 407 637 633 192 247 368 549
472 812 21 52 42 104 47 115 21 49 81 242 103 332 13 54 27 112 32 128 4 17 9
39 11 50 2 11 10 57 18 101 19 100 34 213 43 319 13 159 5 632 -13 720 -2 11
-7 40 -10 65 -3 25 -7 56 -10 70 -6 27 -11 54 -20 110 -82 475 -315 1002 -637
1437 -166 226 -445 506 -666 670 -42 32 -79 60 -82 64 -21 24 -438 279 -456
279 -3 0 -57 25 -120 55 -296 143 -670 261 -914 290 -51 6 -110 14 -155 21
-35 6 -630 15 -636 10z"/>
</g>
</svg>
